# Made in Blockbench 5.0.4
mtllib materials.mtl

o tv
v 0.375 0.9501821347112583 0.20897539386756842
v 0.375 0.40101563070629587 0.08722811102738565
v 0.375 0.4415980583196901 -0.09582739030760179
v 0.375 0.9907645623246526 0.025919892532580924
v -0.375 0.4415980583196901 -0.09582739030760179
v -0.375 0.40101563070629587 0.08722811102738565
v -0.375 0.9501821347112583 0.20897539386756842
v -0.375 0.9907645623246526 0.025919892532580924
v 0.21875 0.3266145134150731 0.42282986347486273
v 0.21875 0.8147625169750398 0.531049670443914
v -0.21875 0.8147625169750398 0.531049670443914
v -0.21875 0.3266145134150731 0.42282986347486273
v -0.28125 1.0110557761313497 -0.06560785813491281
v 0.28125 1.0110557761313497 -0.06560785813491281
v 0.28125 0.46188927212638725 -0.18735514097509554
v -0.28125 0.46188927212638725 -0.18735514097509554
v 0.28125 0.3500703076521964 -0.11611860411429892
v 0.28125 0.3094878800388021 0.06693689722068852
v -0.28125 0.3094878800388021 0.06693689722068852
v -0.28125 0.3500703076521964 -0.11611860411429892
v -0.28125 1.041709885378752 0.22926660767426554
v 0.28125 1.041709885378752 0.22926660767426554
v 0.28125 1.0822923129921462 0.04621110633927805
v -0.28125 1.0822923129921462 0.04621110633927805
v 0.1271325 0.7959934179618466 -0.3949629015129858
v 0.118455 0.9734716762699255 -0.32922315635112426
v 0.398103125 0.9442026825518345 -0.1971992574933001
v 0.4296225 0.7635389742256218 -0.2485703661703741
v 0.1097775 0.4085824576094643 -0.3800498564940972
v 0.118455 0.6090516080838418 -0.4180153241335372
v 0.405915625 0.5780916798818595 -0.2783641127200886
v 0.382208125 0.3926442502633386 -0.3081572490847987
v -0.131941875 0.7959934179618466 -0.3949629015129858
v -0.123264375 0.9734716762699255 -0.32922315635112426
v -0.1145875 0.4085824576094643 -0.3800498564940972
v -0.123264375 0.6090516080838418 -0.4180153241335372
v -0.434431875 0.7669208431934047 -0.26382499128162307
v -0.4029125 0.9458936170357259 -0.2048265700489246
v -0.387018125 0.3926442502633386 -0.3081572490847987
v -0.410725 0.579782614365751 -0.2859914252757131
v 0.1097775 1.1408044629494143 -0.21772014604052026
v -0.1145875 1.1408044629494143 -0.21772014604052026
v -0.371393125 1.1248662556032887 -0.14582753863122172
v 0.366583125 1.1248662556032887 -0.14582753863122172
v 0.4375 1.1431659544122377 -0.22837214566320319
v 0.375 1.1431659544122377 -0.22837214566320319
v 0.375 1.116111002669975 -0.10633514477321152
v 0.4375 1.116111002669975 -0.10633514477321152
v 0.4375 0.3838889973300249 -0.2686648552267885
v 0.375 0.3838889973300249 -0.2686648552267885
v 0.375 0.4109439490722877 -0.39070185611678016
v 0.4375 0.4109439490722877 -0.39070185611678016
v 0.4375 0.3228704968850291 -0.2821923310979199
v 0.4375 1.1771295031149707 -0.0928076689020801
v 0.4375 1.123019599630445 0.1512663328779032
v 0.4375 0.26876059340050346 -0.03811832931793657
v -0.4375 0.26876059340050346 -0.03811832931793657
v -0.4375 1.123019599630445 0.1512663328779032
v -0.4375 1.1771295031149707 -0.0928076689020801
v -0.4375 0.3228704968850291 -0.2821923310979199
v 0.4375 0.3499254486272919 -0.40422933198791156
v 0.4375 0.4109439490722877 -0.39070185611678016
v 0.4375 0.3838889973300249 -0.2686648552267885
v 0.4375 0.3228704968850291 -0.2821923310979199
v -0.4375 0.3228704968850291 -0.2821923310979199
v -0.4375 0.3838889973300249 -0.2686648552267885
v -0.4375 0.4109439490722877 -0.39070185611678016
v -0.4375 0.3499254486272919 -0.40422933198791156
v 0.4375 1.1431659544122377 -0.22837214566320319
v 0.4375 1.2041844548572334 -0.21484466979207176
v 0.4375 1.1771295031149707 -0.0928076689020801
v 0.4375 1.116111002669975 -0.10633514477321152
v -0.4375 1.116111002669975 -0.10633514477321152
v -0.4375 1.1771295031149707 -0.0928076689020801
v -0.4375 1.2041844548572334 -0.21484466979207176
v -0.4375 1.1431659544122377 -0.22837214566320319
v -0.375 1.1431659544122377 -0.22837214566320319
v -0.4375 1.1431659544122377 -0.22837214566320319
v -0.4375 1.116111002669975 -0.10633514477321152
v -0.375 1.116111002669975 -0.10633514477321152
v -0.375 0.3838889973300249 -0.2686648552267885
v -0.4375 0.3838889973300249 -0.2686648552267885
v -0.4375 0.4109439490722877 -0.39070185611678016
v -0.375 0.4109439490722877 -0.39070185611678016
vt 0.29464872243134066 0.99492734375
vt 0.3098674724313406 0.92628203125
vt 0.3327487224313406 0.9313546875000001
vt 0.31753075368134065 1
vt 0.25025897970732414 0.8376046875000001
vt 0.27314022970732416 0.83253203125
vt 0.28835897970732416 0.90117734375
vt 0.26547694845732417 0.90625
vt 0.390625 0.6015625
vt 0.390625 0.6640625
vt 0.3359375 0.6640625
vt 0.3359375 0.6015625
vt 0.0703125 0.734375
vt 0 0.734375
vt 0 0.6640625
vt 0.0703125 0.6640625
vt 0.328125 0.658203125
vt 0.328125 0.681640625
vt 0.2578125 0.681640625
vt 0.2578125 0.658203125
vt 0.2578125 0.7890625
vt 0.328125 0.7890625
vt 0.328125 0.8125
vt 0.2578125 0.8125
vt 0.2502590900686594 0.9770834661539987
vt 0.2637873161561141 0.9160649645368618
vt 0.3098676931540111 0.9262810356638522
vt 0.29464872243134066 0.99492734375
vt 0.27314022970732416 0.83253203125
vt 0.3192206067052211 0.8223159601230096
vt 0.33274883279267586 0.8833344617401465
vt 0.2883592004299946 0.9011783393361478
vt 0.328125 0.681640625
vt 0.3203125 0.72617890625
vt 0.265625 0.72617890625
vt 0.2578125 0.681640625
vt 0.265625 0.74186328125
vt 0.3203125 0.74186328125
vt 0.328125 0.7890625
vt 0.2578125 0.7890625
vt 0.2421875 0.5078125
vt 0.2578125 0.5078125
vt 0.2578125 0.578125
vt 0.2421875 0.578125
vt 0.484375 0.6875
vt 0.4140625 0.6875
vt 0.4140625 0.671875
vt 0.484375 0.671875
vt 0.4990234375 0.7968468866557716
vt 0.4287109375 0.7968468866557716
vt 0.4287109375 0.7802734491557716
vt 0.4990234375 0.7802734491557716
vt 0.4287109375 0.7656247666725813
vt 0.4287109375 0.7490521104225814
vt 0.4990234375 0.7490521104225814
vt 0.4990234375 0.7656247666725813
vt 0.0703125 0.60137421875
vt 0.06535468750000001 0.6171875
vt 0.042990625000000005 0.6101757812499999
vt 0.04794843750000001 0.5943625
vt 0.04389311254964891 0.6329366220687223
vt 0.0662571750496489 0.6399483408187223
vt 0.061299362549648906 0.6557616220687223
vt 0.0389353000496489 0.6487499033187223
vt 0.277321875 0.6023632812499999
vt 0.2549578125 0.609375
vt 0.25 0.59356171875
vt 0.2723640625 0.58655
vt 0.2551068874503511 0.6479491220687223
vt 0.2501490749503511 0.6321358408187223
vt 0.2725131374503511 0.6251241220687223
vt 0.2774709499503511 0.6409374033187223
vt 0.4287109375 0.7968468866557716
vt 0.41435793186017744 0.7885602501866493
vt 0.4287109375 0.7802734375
vt 0.4990234375 0.7968468866557716
vt 0.4990234375 0.7802734375
vt 0.5133764431398226 0.7885602501866493
vt 0.4287109375 0.7490518770951626
vt 0.4287109375 0.7656247666725813
vt 0.41435813242626157 0.7573389786063471
vt 0.4990234375 0.7490521104225814
vt 0.5133762425737384 0.7573392119337657
vt 0.4990234375 0.765625
vt 0 0.6220703125
vt 0.04389311254964891 0.6329366220687223
vt 0.038935275655634136 0.6487499811250969
vt 0.31640625 0.6142578125
vt 0.27747097434436585 0.6409374811250969
vt 0.2725131374503511 0.6251241220687223
vt 0.0005087215764929681 0.5881723129221591
vt 0.04794855938623986 0.5943621112355214
vt 0.042990625000000005 0.6101757812499999
vt 0.31980377842350705 0.5803598129221591
vt 0.277321875 0.6023632812499999
vt 0.2723639406137601 0.5865496112355214
vt 0.17513493300675215 0.7168319178095691
vt 0.17356181565680875 0.7404623859716304
vt 0.13477890011560686 0.7385808314865696
vt 0.13298199199193672 0.7148458078500707
vt 0.1739111211240387 0.6678651514196217
vt 0.17622160746914972 0.693287399779807
vt 0.1361312280165949 0.6913917146908178
vt 0.1392385560403628 0.6688287471715538
vt 0.2075217156517912 0.7168320312500001
vt 0.20643655940179118 0.74048984375
vt 0.17622171565179118 0.74048984375
vt 0.17513734065179118 0.7168320312500001
vt 0.20535218440179118 0.66778359375
vt 0.20643655940179118 0.6932875000000001
vt 0.17622171565179118 0.6932875000000001
vt 0.17730687190179117 0.66778359375
vt 0.24885394550806328 0.7150679960861328
vt 0.24722352500516795 0.7388956991659905
vt 0.20884259344322925 0.7404739429057329
vt 0.2075216966839743 0.7168316197070934
vt 0.24336604942075704 0.6679193091615377
vt 0.24610644137921966 0.6915023268175253
vt 0.2064365594017912 0.6932875000000001
vt 0.2086283942850342 0.6685980307256774
vt 0.17513734065179118 0.7168320312500001
vt 0.17622171565179118 0.6932875000000001
vt 0.20643655940179118 0.6932875000000001
vt 0.2075217156517912 0.7168320312500001
vt 0.2075216966839743 0.7168316197070934
vt 0.2064365594017912 0.6932875000000001
vt 0.24610660172774398 0.6915023196017267
vt 0.24884648368033246 0.715068314478091
vt 0.13298199199193672 0.7148458078500707
vt 0.1361312280165949 0.6913917146908178
vt 0.17622172002244957 0.693287405101922
vt 0.17513734065179118 0.7168320312500001
vt 0.17730687190179117 0.765625
vt 0.17622171565179118 0.74048984375
vt 0.20643655940179118 0.74048984375
vt 0.20535218440179118 0.765625
vt 0.21264582997587614 0.7653434965333946
vt 0.20884272707653237 0.7404739374106624
vt 0.24722352500516795 0.7388956991659905
vt 0.24557505858959283 0.7622685155565232
vt 0.13657601257009439 0.7623193057634193
vt 0.134778824359875 0.7385808278112778
vt 0.17356181565680875 0.7404623859716304
vt 0.1694096413899571 0.7646256851559508
vt 0.125 0.6875
vt 0.1171875 0.6875
vt 0.1171875 0.671875
vt 0.125 0.671875
vt 0.3125 0.6328125
vt 0.3203125 0.6328125
vt 0.3203125 0.6484375
vt 0.3125 0.6484375
vt 0.5078125 0.71875
vt 0.5078125 0.734375
vt 0.4140625 0.734375
vt 0.4140625 0.71875
vt 0.2109375 0.59375
vt 0.1953125 0.59375
vt 0.1953125 0.5
vt 0.2109375 0.5
vt 0.0234375 0.546875
vt 0.015625 0.546875
vt 0.015625 0.453125
vt 0.0234375 0.453125
vt 0.1796875 0.4765625
vt 0.1875 0.4765625
vt 0.1875 0.5703125
vt 0.1796875 0.5703125
vt 0.109375 0.625
vt 0.109375 0.734375
vt 0.078125 0.734375
vt 0.078125 0.625
vt 0.3359375 0.96875
vt 0.4453125 0.96875
vt 0.4453125 1
vt 0.3359375 1
vt 0.453125 0.890625
vt 0.453125 0.921875
vt 0.34375 0.921875
vt 0.34375 0.890625
vt 0.34375 0.9609375
vt 0.34375 0.9296875
vt 0.453125 0.9296875
vt 0.453125 0.9609375
vt 0.2421875 0.890625
vt 0.2421875 1
vt 0.1328125 1
vt 0.1328125 0.890625
vt 0.2421875 0.7734375
vt 0.2421875 0.8828125
vt 0.1328125 0.8828125
vt 0.1328125 0.7734375
vt 0.3203125 0.90625
vt 0.3203125 0.9140625
vt 0.3046875 0.9140625
vt 0.3046875 0.90625
vt 0.1171875 0.71875
vt 0.125 0.71875
vt 0.125 0.734375
vt 0.1171875 0.734375
vt 0.5078125 0.59375
vt 0.5078125 0.609375
vt 0.3984375 0.609375
vt 0.3984375 0.59375
vt 0.078125 0.59375
vt 0.078125 0.578125
vt 0.1875 0.578125
vt 0.1875 0.59375
vt 0.171875 0.5625
vt 0.171875 0.5703125
vt 0.0625 0.5703125
vt 0.0625 0.5625
vt 0.375 0.5546875
vt 0.375 0.5625
vt 0.265625 0.5625
vt 0.265625 0.5546875
vt 0.015625 0.6484375
vt 0.015625 0.65625
vt 0 0.65625
vt 0 0.6484375
vt 0.1171875 0.6953125
vt 0.125 0.6953125
vt 0.125 0.7109375
vt 0.1171875 0.7109375
vt 0.5234375 0.8359375
vt 0.5234375 0.8515625
vt 0.4140625 0.8515625
vt 0.4140625 0.8359375
vt 0.3984375 0.6328125
vt 0.3984375 0.6171875
vt 0.5078125 0.6171875
vt 0.5078125 0.6328125
vt 0.171875 0.546875
vt 0.171875 0.5546875
vt 0.0625 0.5546875
vt 0.0625 0.546875
vt 0.4921875 0.546875
vt 0.4921875 0.5546875
vt 0.3828125 0.5546875
vt 0.3828125 0.546875
vt 0.3359375 0.9140625
vt 0.328125 0.9140625
vt 0.328125 0.8984375
vt 0.3359375 0.8984375
vt 0.078125 0.6015625
vt 0.0859375 0.6015625
vt 0.0859375 0.6171875
vt 0.078125 0.6171875
vt 0.5078125 0.6953125
vt 0.5078125 0.7109375
vt 0.4140625 0.7109375
vt 0.4140625 0.6953125
vt 0.234375 0.59375
vt 0.21875 0.59375
vt 0.21875 0.5
vt 0.234375 0.5
vt 0.0390625 0.546875
vt 0.03125 0.546875
vt 0.03125 0.453125
vt 0.0390625 0.453125
vt 0 0.453125
vt 0.0078125 0.453125
vt 0.0078125 0.546875
vt 0 0.546875
vn 1 0 0
vn -1 0 0
vn 0 -0.21643961393810265 0.9762960071199335
vn 0 0.21643961393810268 -0.9762960071199336
vn 0 -0.9762960071199334 -0.2164396139381028
vn 0 0.9762960071199336 0.21643961393810215
vn 0.9103664774626049 -0.08956334951099847 0.40399416225571827
vn -0.9103664774626049 -0.08956334951099844 0.4039941622557182
vn 0 -0.9988440962182064 0.04806736366844759
vn 0 0.7992238074515816 0.6010335311799148
vn 0.7071067811865475 0.1530459187330308 -0.6903455270798549
vn -0.7071067811865476 0.1530459187330308 -0.6903455270798549
vn 0 -0.537299608346824 -0.8433914458128858
vn 0 0.8433914458128858 -0.5372996083468238
vn 0.7071067811865471 0.6903455270798554 0.15304591873303053
vn 0.7071067811865476 -0.6903455270798547 -0.15304591873303086
vn -0.7071067811865471 0.6903455270798554 0.15304591873303053
vn -0.7071067811865475 -0.6903455270798549 -0.1530459187330309
vn 0.5773502691896258 -0.43870329314898815 -0.6886262318899127
vn -0.5773502691896258 -0.43870329314898815 -0.6886262318899127
vn 0.5773502691896254 0.6886262318899131 -0.4387032931489881
vn -0.5773502691896254 0.6886262318899131 -0.4387032931489881
vn 0.673189067498315 -0.7234612449429814 0.15303694477576624
vn -0.673189067498315 -0.7234612449429814 0.15303694477576624
vn 0.6448314199366041 0.540730936449251 0.5401874621177906
vn -0.6448314199366041 0.540730936449251 0.5401874621177906
vn 0.43090440804823454 0.3318965401066066 -0.8391460407997315
vn 0.4129502114514203 -0.18669355117285408 -0.8914132828338921
vn 0 0.34734714419465795 -0.9377366162307067
vn 0 -0.1860755981408347 -0.9825354302906998
vn -0.40933547737933096 0.3498650285203949 -0.8426380769803002
vn -0.42128085442995883 0.05386450930878008 -0.90532925299456
vn 0 0.1223863555641157 -0.9924825338371119
vn -0.4232907015444764 0.0915015207232927 -0.9013614445333848
vn 0.4428699587314279 0.08675373882052677 -0.8923788368478285
vn 0 0.5545205275947798 -0.8321700454089941
vn -0.3886380478098778 0.52480101838017 -0.7573271148596645
vn 0.43191290075830036 0.3156009470432158 -0.8448948386538859
vn 0 0.9762960071199337 0.2164396139381016
vn 0 -0.9762960071199335 -0.2164396139381025
vn -1 0 0
vn 1 0 0
vn 0 -0.21643961393810265 0.9762960071199335
vn 0 0.21643961393810265 -0.9762960071199335
vn 1 0 0
vn -1 0 0
vn 0 0.9762960071199335 0.21643961393810246
vn 0 -0.9762960071199335 -0.21643961393810265
vn 0 -0.21643961393810265 0.9762960071199335
vn 0 0.2164396139381027 -0.9762960071199335
vn 1 0 0
vn -1 0 0
vn 0 0.9762960071199335 0.21643961393810246
vn 0 -0.9762960071199335 -0.21643961393810246
vn 0 -0.21643961393810257 0.9762960071199335
vn 0 0.21643961393810257 -0.9762960071199335
vn 1 0 0
vn -1 0 0
vn 0 0.9762960071199337 0.21643961393810163
vn 0 -0.9762960071199337 -0.2164396139381016
vn 0 -0.2164396139381032 0.9762960071199335
vn 0 0.21643961393810338 -0.9762960071199333
vn 0 0.9762960071199337 0.2164396139381016
vn 0 -0.9762960071199335 -0.2164396139381025
vn -1 0 0
vn 1 0 0
vn 0 -0.21643961393810265 0.9762960071199335
vn 0 0.21643961393810265 -0.9762960071199335
usemtl m_78bce3c9-e21e-19dc-fb47-7dd355df8891
f 1/1/1 2/2/1 3/3/1 4/4/1
f 5/5/2 6/6/2 7/7/2 8/8/2
f 9/9/3 10/10/3 11/11/3 12/12/3
f 13/13/4 14/14/4 15/15/4 16/16/4
f 17/17/5 18/18/5 19/19/5 20/20/5
f 21/21/6 22/22/6 23/23/6 24/24/6
f 10/25/7 9/26/7 2/27/7 1/28/7
f 6/29/8 12/30/8 11/31/8 7/32/8
f 18/33/9 9/34/9 12/35/9 19/36/9
f 11/37/10 10/38/10 22/39/10 21/40/10
f 3/41/11 15/42/11 14/43/11 4/44/11
f 13/45/12 16/46/12 5/47/12 8/48/12
f 16/49/13 15/50/13 17/51/13 20/52/13
f 23/53/14 14/54/14 13/55/14 24/56/14
f 4/57/15 23/58/15 22/59/15 1/60/15
f 18/61/16 17/62/16 3/63/16 2/64/16
f 21/65/17 24/66/17 8/67/17 7/68/17
f 5/69/18 20/70/18 19/71/18 6/72/18
f 15/73/19 3/74/19 17/75/19
f 16/76/20 20/77/20 5/78/20
f 14/79/21 23/80/21 4/81/21
f 13/82/22 8/83/22 24/84/22
f 9/85/23 18/86/23 2/87/23
f 12/88/24 6/89/24 19/90/24
f 10/91/25 1/92/25 22/93/25
f 11/94/26 21/95/26 7/96/26
f 25/97/27 26/98/27 27/99/27 28/100/27
f 29/101/28 30/102/28 31/103/28 32/104/28
f 33/105/29 34/106/29 26/107/29 25/108/29
f 35/109/30 36/110/30 30/111/30 29/112/30
f 37/113/31 38/114/31 34/115/31 33/116/31
f 39/117/32 40/118/32 36/119/32 35/120/32
f 25/121/33 30/122/33 36/123/33 33/124/33
f 33/125/34 36/126/34 40/127/34 37/128/34
f 28/129/35 31/130/35 30/131/35 25/132/35
f 41/133/36 26/134/36 34/135/36 42/136/36
f 42/137/37 34/138/37 38/139/37 43/140/37
f 44/141/38 27/142/38 26/143/38 41/144/38
f 45/145/39 46/146/39 47/147/39 48/148/39
f 49/149/40 50/150/40 51/151/40 52/152/40
f 47/153/41 46/154/41 51/155/41 50/156/41
f 45/157/42 48/158/42 49/159/42 52/160/42
f 48/161/43 47/162/43 50/163/43 49/164/43
f 52/165/44 51/166/44 46/167/44 45/168/44
f 53/169/45 54/170/45 55/171/45 56/172/45
f 57/173/46 58/174/46 59/175/46 60/176/46
f 55/177/47 54/178/47 59/179/47 58/180/47
f 53/181/48 56/182/48 57/183/48 60/184/48
f 56/185/49 55/186/49 58/187/49 57/188/49
f 60/189/50 59/190/50 54/191/50 53/192/50
f 61/193/51 62/194/51 63/195/51 64/196/51
f 65/197/52 66/198/52 67/199/52 68/200/52
f 63/201/53 62/202/53 67/203/53 66/204/53
f 61/205/54 64/206/54 65/207/54 68/208/54
f 64/209/55 63/210/55 66/211/55 65/212/55
f 68/213/56 67/214/56 62/215/56 61/216/56
f 69/217/57 70/218/57 71/219/57 72/220/57
f 73/221/58 74/222/58 75/223/58 76/224/58
f 71/225/59 70/226/59 75/227/59 74/228/59
f 69/229/60 72/230/60 73/231/60 76/232/60
f 72/233/61 71/234/61 74/235/61 73/236/61
f 76/237/62 75/238/62 70/239/62 69/240/62
f 77/241/63 78/242/63 79/243/63 80/244/63
f 81/245/64 82/246/64 83/247/64 84/248/64
f 79/249/65 78/250/65 83/251/65 82/252/65
f 77/253/66 80/254/66 81/255/66 84/256/66
f 80/257/67 79/258/67 82/259/67 81/260/67
f 84/261/68 83/262/68 78/263/68 77/264/68
o cube
v 0.5 0 -0.5
v 0.5 0.1875 -0.5
v 0.5 0.1875 0.5
v 0.5 0 0.5
v -0.5 0 0.5
v -0.5 0.1875 0.5
v -0.5 0.1875 -0.5
v -0.5 0 -0.5
vt 0.46875 0.859375
vt 0.46875 0.8828125
vt 0.34375 0.8828125
vt 0.34375 0.859375
vt 0.5234375 0.640625
vt 0.5234375 0.6640625
vt 0.3984375 0.6640625
vt 0.3984375 0.640625
vt 0 1
vt 0 0.875
vt 0.125 0.875
vt 0.125 1
vt 0 0.7421875
vt 0 0.8671875
vt 0.125 0.8671875
vt 0.125 0.7421875
vt 0.2421875 0.6015625
vt 0.2421875 0.625
vt 0.1171875 0.625
vt 0.1171875 0.6015625
vt 0.2421875 0.6328125
vt 0.2421875 0.65625
vt 0.1171875 0.65625
vt 0.1171875 0.6328125
vn 1 0 0
vn -1 0 0
vn 0 1 0
vn 0 -1 0
vn 0 0 1
vn 0 0 -1
usemtl m_78bce3c9-e21e-19dc-fb47-7dd355df8891
f 85/265/69 86/266/69 87/267/69 88/268/69
f 89/269/70 90/270/70 91/271/70 92/272/70
f 87/273/71 86/274/71 91/275/71 90/276/71
f 85/277/72 88/278/72 89/279/72 92/280/72
f 88/281/73 87/282/73 90/283/73 89/284/73
f 92/285/74 91/286/74 86/287/74 85/288/74
o cube
v 0.28125 0.25 -0.1875
v 0.1205357142857143 0.375 -0.0625
v 0.1205357142857143 0.375 0.125
v 0.28125 0.25 0.25
v -0.28125 0.25 0.25
v -0.1205357142857143 0.375 0.125
v -0.1205357142857143 0.375 -0.0625
v -0.28125 0.25 -0.1875
v 0.28125 0.1875 -0.1875
v 0.28125 0.25 -0.1875
v 0.28125 0.25 0.25
v 0.28125 0.1875 0.25
v -0.28125 0.1875 0.25
v -0.28125 0.25 0.25
v -0.28125 0.25 -0.1875
v -0.28125 0.1875 -0.1875
vt 0.4609375 0.5625
vt 0.4453125 0.5859375
vt 0.421875 0.5859375
vt 0.40625 0.5625
vt 0.0546875 0.5546875
vt 0.0390625 0.578125
vt 0.015625 0.578125
vt 0 0.5546875
vt 0.3984375 0.5703125
vt 0.3783484375 0.59375
vt 0.3482140625 0.59375
vt 0.328125 0.5703125
vt 0.484375 0.8046875
vt 0.4642859375 0.828125
vt 0.4341515625 0.828125
vt 0.4140625 0.8046875
vt 0.1015625 0.53125
vt 0.1015625 0.5390625
vt 0.046875 0.5390625
vt 0.046875 0.53125
vt 0.515625 0.9453125
vt 0.515625 0.953125
vt 0.4609375 0.953125
vt 0.4609375 0.9453125
vt 0.53125 0.9609375
vt 0.53125 0.96875
vt 0.4609375 0.96875
vt 0.4609375 0.9609375
vt 0.3359375 0.5390625
vt 0.3359375 0.546875
vt 0.265625 0.546875
vt 0.265625 0.5390625
vn 0.6139406135149205 0.7893522173763263 0
vn -0.6139406135149205 0.7893522173763263 0
vn 0 0.7071067811865476 0.7071067811865476
vn 0 0.7071067811865476 -0.7071067811865476
vn 1 0 0
vn -1 0 0
vn 0 0 1
vn 0 0 -1
usemtl m_78bce3c9-e21e-19dc-fb47-7dd355df8891
f 93/289/75 94/290/75 95/291/75 96/292/75
f 97/293/76 98/294/76 99/295/76 100/296/76
f 96/297/77 95/298/77 98/299/77 97/300/77
f 100/301/78 99/302/78 94/303/78 93/304/78
f 101/305/79 102/306/79 103/307/79 104/308/79
f 105/309/80 106/310/80 107/311/80 108/312/80
f 104/313/81 103/314/81 106/315/81 105/316/81
f 108/317/82 107/318/82 102/319/82 101/320/82