# Made in Blockbench 5.0.5
mtllib model.mtl

o table
v 1.0477937500000003 1.09375 0.515625
v -1.0477937500000003 1.09375 0.515625
v -1.0477937500000003 0.9393382352941178 0.515625
v 1.0477937500000003 0.9393382352941178 0.515625
v 1.0477937500000003 0.9393382352941178 -0.796875
v 1.0477937500000003 0.9393382352941178 0.359375
v -1.0477937500000003 0.9393382352941178 0.359375
v -1.0477937500000003 0.9393382352941178 -0.796875
v -1.0477937500000003 1.09375 -0.796875
v 1.0477937500000003 1.09375 -0.796875
v -1.0477937500000003 1.09375 0.359375
v 1.0477937500000003 1.09375 0.359375
v 1.1875000000000002 1.09375 0.359375
v 1.1875000000000002 0.9393382352941178 0.359375
v 1.1875000000000002 0.9393382352941178 -0.796875
v 1.1875000000000002 1.09375 -0.796875
v 1.1406250000000002 0.9393382352941178 0.46875
v 1.1406250000000002 1.09375 0.46875
v -1.1875000000000002 0.9393382352941178 -0.796875
v -1.1875000000000002 0.9393382352941178 0.359375
v -1.1875000000000002 1.09375 0.359375
v -1.1875000000000002 1.09375 -0.796875
v -1.1406250000000002 0.9393382352941178 0.46875
v -1.1406250000000002 1.09375 0.46875
vt 0.52550546875 0.46875
vt 0.26355703124999996 0.46875
vt 0.26355703124999996 0.44944843749999996
vt 0.52550546875 0.44944843749999996
vt 0.27941171875000004 0.8359375
vt 0.27941171875000004 0.98046875
vt 0.01746328124999999 0.98046875
vt 0.01746328124999999 0.8359375
vt 0.26746328124999996 0.48069843749999996
vt 0.52941171875 0.48069843749999996
vt 0.52941171875 0.5
vt 0.26746328124999996 0.5
vt 0.01746328124999999 0.828125
vt 0.01746328124999999 0.68359375
vt 0.27941171875000004 0.68359375
vt 0.27941171875000004 0.828125
vt 0.01746328124999999 1
vt 0.01746328124999999 0.98046875
vt 0.27941171875000004 0.98046875
vt 0.27941171875000004 1
vt 0.27941171875000004 0.6640625
vt 0.27941171875000004 0.68359375
vt 0.01746328124999999 0.68359375
vt 0.01746328124999999 0.6640625
vt 0.5465 0.6015625
vt 0.5465 0.5822609375000001
vt 0.69103125 0.5822609375000001
vt 0.69103125 0.6015625
vt 0.27941171875000004 0.68359375
vt 0.296875 0.68359375
vt 0.296875 0.828125
vt 0.27941171875000004 0.828125
vt 0.296875 0.98046875
vt 0.27941171875000004 0.98046875
vt 0.27941171875000004 0.8359375
vt 0.296875 0.8359375
vt 0.52550546875 0.46875
vt 0.52550546875 0.44944843749999996
vt 0.5385046875 0.44944843749999996
vt 0.5385046875 0.46875
vt 0.26746328124999996 0.48069843749999996
vt 0.26746328124999996 0.5
vt 0.25 0.5
vt 0.25 0.48069843749999996
vt 0.5465 0.5822609375000001
vt 0.5465 0.6015625
vt 0.531625 0.6015625
vt 0.531625 0.5822609375000001
vt 0.27941171875000004 0.98046875
vt 0.296875 0.98046875
vt 0.291015625 0.994140625
vt 0.27941171875000004 1
vt 0.296875 0.68359375
vt 0.27941171875000004 0.68359375
vt 0.27941171875000004 0.6640625
vt 0.291015625 0.669921875
vt 0.531625 0.5510109375000001
vt 0.67615625 0.5510109375000001
vt 0.67615625 0.5703125
vt 0.531625 0.5703125
vt 0 0.828125
vt 0 0.68359375
vt 0.01746328124999999 0.68359375
vt 0.01746328124999999 0.828125
vt 0.01746328124999999 0.8359375
vt 0.01746328124999999 0.98046875
vt 0 0.98046875
vt 0 0.8359375
vt 0.2505578125 0.44944843749999996
vt 0.26355703124999996 0.44944843749999996
vt 0.26355703124999996 0.46875
vt 0.2505578125 0.46875
vt 0.546875 0.5
vt 0.52941171875 0.5
vt 0.52941171875 0.48069843749999996
vt 0.546875 0.48069843749999996
vt 0.69103125 0.5703125
vt 0.67615625 0.5703125
vt 0.67615625 0.5510109375000001
vt 0.69103125 0.5510109375000001
vt 0.005859375 0.994140625
vt 0 0.98046875
vt 0.01746328124999999 0.98046875
vt 0.01746328124999999 1
vt 0.01746328124999999 0.6640625
vt 0.01746328124999999 0.68359375
vt 0 0.68359375
vt 0.005859375 0.669921875
vn 0 0 1
vn 0 -1 0
vn 0 0 -1
vn 0 1 0
vn 0 -1 0
vn 0 1 0
vn 1 0 0
vn 0 1 0
vn 0 -1 0
vn 0.45074393746177155 0 0.8926532937492916
vn 0 0 -1
vn 0.919145030018058 0 0.39391929857916774
vn 0 -1 0
vn 0 1 0
vn -1 0 0
vn 0 1 0
vn 0 -1 0
vn -0.45074393746177155 0 0.8926532937492916
vn 0 0 -1
vn -0.919145030018058 0 0.39391929857916774
vn 0 -1 0
vn 0 1 0
usemtl m_f78141cd-9336-f93a-9822-bd650d7618f3
f 1/1/1 2/2/1 3/3/1 4/4/1
f 5/5/2 6/6/2 7/7/2 8/8/2
f 5/9/3 8/10/3 9/11/3 10/12/3
f 9/13/4 11/14/4 12/15/4 10/16/4
f 3/17/5 7/18/5 6/19/5 4/20/5
f 1/21/6 12/22/6 11/23/6 2/24/6
f 13/25/7 14/26/7 15/27/7 16/28/7
f 12/29/8 13/30/8 16/31/8 10/32/8
f 14/33/9 6/34/9 5/35/9 15/36/9
f 1/37/10 4/38/10 17/39/10 18/40/10
f 5/41/11 10/42/11 16/43/11 15/44/11
f 14/45/12 13/46/12 18/47/12 17/48/12
f 6/49/13 14/50/13 17/51/13 4/52/13
f 13/53/14 12/54/14 1/55/14 18/56/14
f 19/57/15 20/58/15 21/59/15 22/60/15
f 22/61/16 21/62/16 11/63/16 9/64/16
f 8/65/17 7/66/17 20/67/17 19/68/17
f 23/69/18 3/70/18 2/71/18 24/72/18
f 22/73/19 9/74/19 8/75/19 19/76/19
f 24/77/20 21/78/20 20/79/20 23/80/20
f 23/81/21 20/82/21 7/83/21 3/84/21
f 2/85/22 11/86/22 21/87/22 24/88/22
o cube
v -1.1249999999999996 0 -0.7156250000000003
v -1.1249999999999996 0.9375 -0.7156250000000003
v 1.1250000000000004 0.9375 -0.7156249999999997
v 1.1250000000000004 0 -0.7156249999999997
v 1.1250000000000004 0 -0.5906249999999997
v 1.1250000000000004 0.9375 -0.5906249999999997
v -1.1249999999999996 0.9375 -0.5906250000000003
v -1.1249999999999996 0 -0.5906250000000003
vt 0.5859375 0.8828125
vt 0.5859375 1
vt 0.3046875 1
vt 0.3046875 0.8828125
vt 0.5859375 0.7578125
vt 0.5859375 0.875
vt 0.3046875 0.875
vt 0.3046875 0.7578125
vt 0.53125 0.609375
vt 0.8125 0.609375
vt 0.8125 0.625
vt 0.53125 0.625
vt 0.0625 0.3203125
vt 0.0625 0.4375
vt 0.046875 0.4375
vt 0.046875 0.3203125
vt 0.0859375 0.3203125
vt 0.0859375 0.4375
vt 0.0703125 0.4375
vt 0.0703125 0.3203125
vn 2.4671622769447924e-16 0 -1
vn -2.4671622769447924e-16 0 1
vn 0 -1 0
vn 1 0 0
vn -1 0 0
usemtl m_f78141cd-9336-f93a-9822-bd650d7618f3
f 25/89/23 26/90/23 27/91/23 28/92/23
f 29/93/24 30/94/24 31/95/24 32/96/24
f 25/97/25 28/98/25 29/99/25 32/100/25
f 28/101/26 27/102/26 30/103/26 29/104/26
f 32/105/27 31/106/27 26/107/27 25/108/27
o cube
v 1.125 0 -0.5906249999999997
v 1.125 0.9375 -0.5906249999999997
v 1.125 0.9375 0.4093750000000001
v 1.125 0 0.4093750000000001
v 1 0 0.4093750000000001
v 1 0.9375 0.4093750000000001
v 1 0.9375 -0.5906249999999997
v 1 0 -0.5906249999999997
vt 0.4296875 0.6328125
vt 0.4296875 0.75
vt 0.3046875 0.75
vt 0.3046875 0.6328125
vt 0.125 0.5390625
vt 0.125 0.65625
vt 0 0.65625
vt 0 0.5390625
vt 0.5625 0.34375
vt 0.5625 0.46875
vt 0.546875 0.46875
vt 0.546875 0.34375
vt 0.109375 0.3203125
vt 0.109375 0.4375
vt 0.09375 0.4375
vt 0.09375 0.3203125
vn 1 0 0
vn -1 0 0
vn 0 -1 0
vn 0 0 1
usemtl m_f78141cd-9336-f93a-9822-bd650d7618f3
f 33/109/28 34/110/28 35/111/28 36/112/28
f 37/113/29 38/114/29 39/115/29 40/116/29
f 33/117/30 36/118/30 37/119/30 40/120/30
f 36/121/31 35/122/31 38/123/31 37/124/31
o cube
v -1 0 -0.5906249999999997
v -1 0.9375 -0.5906249999999997
v -1 0.9375 0.4093750000000001
v -1 0 0.4093750000000001
v -1.125 0 0.4093750000000001
v -1.125 0.9375 0.4093750000000001
v -1.125 0.9375 -0.5906249999999997
v -1.125 0 -0.5906249999999997
vt 0.5234375 0.5078125
vt 0.5234375 0.625
vt 0.3984375 0.625
vt 0.3984375 0.5078125
vt 0.5625 0.6328125
vt 0.5625 0.75
vt 0.4375 0.75
vt 0.4375 0.6328125
vt 0.0390625 0.3125
vt 0.0390625 0.4375
vt 0.0234375 0.4375
vt 0.0234375 0.3125
vt 0.15625 0.3203125
vt 0.15625 0.4375
vt 0.140625 0.4375
vt 0.140625 0.3203125
vn 1 0 0
vn -1 0 0
vn 0 -1 0
vn 0 0 1
usemtl m_f78141cd-9336-f93a-9822-bd650d7618f3
f 41/125/32 42/126/32 43/127/32 44/128/32
f 45/129/33 46/130/33 47/131/33 48/132/33
f 41/133/34 44/134/34 45/135/34 48/136/34
f 44/137/35 43/138/35 46/139/35 45/140/35
o cube
v 1.0000000000000002 0.9390624999999992 0.4062499999999996
v 0.3125000000000003 0.9390624999999997 0.4062499999999999
v 0.31249999999999967 0.0015625000000000222 0.40625000000000033
v 0.9999999999999997 0.0015624999999995781 0.40625
v 0.9999999999999997 0.001562499999999467 0.34375
v 0.31249999999999967 0.0015624999999999112 0.34375000000000033
v 0.3125000000000003 0.9390624999999997 0.3437499999999999
v 1.0000000000000002 0.9390624999999992 0.3437499999999996
vt 0.1171875 0.4453125
vt 0.1171875 0.53125
vt 0 0.53125
vt 0 0.4453125
vt 0.2421875 0.4453125
vt 0.2421875 0.53125
vt 0.125 0.53125
vt 0.125 0.4453125
vt 0.171875 0.3515625
vt 0.171875 0.4375
vt 0.1640625 0.4375
vt 0.1640625 0.3515625
vn 4.440892098500629e-16 4.440892098500623e-16 1
vn -4.440892098500629e-16 -4.440892098500623e-16 -1
vn -6.661338147750937e-16 -1 4.440892098500629e-16
usemtl m_f78141cd-9336-f93a-9822-bd650d7618f3
f 49/141/36 50/142/36 51/143/36 52/144/36
f 53/145/37 54/146/37 55/147/37 56/148/37
f 52/149/38 51/150/38 54/151/38 53/152/38
o cube
v 0.3125 0 -0.5906249999999997
v 0.3125 0.9375 -0.5906249999999997
v 0.3125 0.9375 0.4093750000000001
v 0.3125 0 0.4093750000000001
v 0.1875 0 0.4093750000000001
v 0.1875 0.9375 0.4093750000000001
v 0.1875 0.9375 -0.5906249999999997
v 0.1875 0 -0.5906249999999997
vt 0.2578125 0.5390625
vt 0.2578125 0.65625
vt 0.1328125 0.65625
vt 0.1328125 0.5390625
vt 0.390625 0.5078125
vt 0.390625 0.625
vt 0.265625 0.625
vt 0.265625 0.5078125
vt 0.015625 0.3125
vt 0.015625 0.4375
vt 0 0.4375
vt 0 0.3125
vt 0.1328125 0.3203125
vt 0.1328125 0.4375
vt 0.1171875 0.4375
vt 0.1171875 0.3203125
vn 1 0 0
vn -1 0 0
vn 0 -1 0
vn 0 0 1
usemtl m_f78141cd-9336-f93a-9822-bd650d7618f3
f 57/153/39 58/154/39 59/155/39 60/156/39
f 61/157/40 62/158/40 63/159/40 64/160/40
f 57/161/41 60/162/41 61/163/41 64/164/41
f 60/165/42 59/166/42 62/167/42 61/168/42